<svg width="253" height="29" viewBox="0 0 253 29" fill="none" xmlns="http://www.w3.org/2000/svg">
<path d="M68.5498 28.7858H86.8686C88.1277 28.7858 96.0889 29.2793 95.8451 21.466C95.8451 21.466 96.0076 18.6697 93.733 16.449C92.1083 14.8453 89.7524 13.8994 85.9343 12.7891C84.2284 12.2957 82.1975 11.5966 79.801 10.8975C78.0544 10.3629 77.5264 9.95167 77.567 9.25259C77.6482 8.34789 78.7043 8.06003 80.2884 7.97778C82.9286 7.81329 89.4681 8.14228 95.439 10.1984L95.4796 7.77217L95.8451 0H79.0293C75.6173 0 68.2655 0.534594 68.5498 8.38901C68.5498 8.38901 68.7123 11.8844 70.8244 13.5293C71.7992 14.2695 72.8553 14.6808 75.0081 15.5855C76.6328 16.2845 81.6288 17.5594 84.4315 18.464C85.8125 18.9164 86.8279 19.4921 86.7467 20.2323C86.7061 20.9725 86.0562 21.1781 84.6346 21.1781C82.2381 21.1781 74.9268 20.6435 68.956 18.5874L68.9154 21.0137L68.5498 28.7858Z" fill="#2D4168"/>
<path d="M126.669 0H115.986L108.959 10.4451H106.238L106.766 0H97.5051V28.7858H106.319L106.197 18.464H112.006C112.006 18.464 117.814 17.5594 117.814 25.825C117.814 25.8661 117.814 26.3596 117.814 26.4418L117.895 27.2643V28.7447H126.466V21.3015C126.466 14.8041 121.876 12.2957 119.114 12.2957L119.073 11.3498L126.669 0Z" fill="#2D4168"/>
<path d="M128.286 0V28.7858H137.059L136.856 16.9836L137.506 0H128.286Z" fill="#2D4168"/>
<path d="M154.062 8.01891C154.062 8.01891 154.184 7.97778 154.428 8.01891C157.921 8.1834 157.759 11.5555 154.265 11.5555H148.091V8.01891H154.062ZM159.505 14.3929C166.085 14.3929 165.638 8.01891 165.638 8.01891C165.638 7.97778 165.638 7.97778 165.638 7.97778C165.476 5.6338 164.826 0 155.362 0H139.115L139.155 0.699085L139.521 7.77217V28.7858H148.091V18.8753H153.656C155.24 19.5332 157.027 21.3015 157.027 25.825C157.027 25.9072 157.027 26.4007 157.027 26.4418L157.109 27.2643V28.7447H165.638V23.1931C165.638 18.5052 162.714 15.6266 159.505 15.6266V14.3929Z" fill="#2D4168"/>
<path d="M212.689 20.7669H206.718V8.01891H212.404C212.404 8.01891 217.725 7.85442 217.725 14.3929C217.725 20.9314 212.689 20.7669 212.689 20.7669ZM197.741 0L198.148 7.77217V28.7858H215.045C222.925 28.7858 226.418 22.9053 226.133 17.1892V11.4321C226.133 2.59072 218.7 0 214.151 0H197.741Z" fill="#2D4168"/>
<path d="M227.451 0V28.8269H253V19.9033L242.155 20.1501L236.103 19.8622L236.062 18.1762L247.313 18.4229V10.3629H236.265L236.347 8.71799L239.109 8.67687L253 9.33483V0H227.451Z" fill="#2D4168"/>
<path d="M0 0.514034H14.9497V28.7858H0V0.514034Z" fill="#2D4168"/>
<path d="M16.6421 0.514034H26.7967V28.7858H16.6421V0.514034Z" fill="#2D4168"/>
<path d="M28.4891 0.514034H34.4125V28.7858H28.4891V0.514034Z" fill="#2D4168"/>
<path d="M36.105 0.514034H38.3615V28.7858H36.105V0.514034Z" fill="#2D4168"/>
<path d="M40.0539 0.514034H41.4643V28.7858H40.0539V0.514034Z" fill="#2D4168"/>
<path d="M42.8746 0.514034H44.285V28.7858H42.8746V0.514034Z" fill="#2D4168"/>
<path d="M45.6953 0.514034H47.1057V28.7858H45.6953V0.514034Z" fill="#2D4168"/>
<path d="M48.516 0.514034H49.9264V28.7858H48.516V0.514034Z" fill="#2D4168"/>
<path d="M51.3367 0.514034H52.7471V28.7858H51.3367V0.514034Z" fill="#2D4168"/>
<path d="M54.1574 0.514034H55.5678V28.7858H54.1574V0.514034Z" fill="#2D4168"/>
<path d="M56.9781 0.514034H58.3885V28.7858H56.9781V0.514034Z" fill="#2D4168"/>
<path fill-rule="evenodd" clip-rule="evenodd" d="M196.103 29L181.935 0.514034L167.767 29H196.103ZM181.935 23.3599C183.337 23.3599 184.474 22.2092 184.474 20.7898C184.474 19.3703 183.337 18.2196 181.935 18.2196C180.533 18.2196 179.397 19.3703 179.397 20.7898C179.397 22.2092 180.533 23.3599 181.935 23.3599Z" fill="#2D4168"/>
</svg>
