<svg width="38" height="38" viewBox="0 0 38 38" fill="none" xmlns="http://www.w3.org/2000/svg">
<path d="M1.14434 0.00110253C0.783598 0.0146216 0.448559 0.191165 0.233595 0.481424C0.0188965 0.771418 -0.0523981 1.14359 0.040366 1.49241L3.9969 16.3233L21.4681 18.9976L3.99962 21.6696L0.0407051 36.5045C-0.0390784 36.8012 -0.000643998 37.1174 0.147787 37.3862C0.296483 37.6552 0.54325 37.8564 0.836918 37.9471C1.13034 38.0377 1.44761 38.0112 1.72195 37.8729L37.3456 20.0596C37.6094 19.927 37.814 19.7014 37.9203 19.426C38.0266 19.1509 38.0266 18.846 37.9203 18.5708C37.814 18.2957 37.6094 18.0698 37.3456 17.9373L1.72195 0.124004C1.54303 0.0349376 1.34393 -0.00711534 1.14434 0.00110253Z" fill="#12957D"/>
</svg>
